<?xml version="1.0" encoding="UTF-8"?>
<!DOCTYPE svg PUBLIC "-//W3C//DTD SVG 1.1//EN" "http://www.w3.org/Graphics/SVG/1.1/DTD/svg11.dtd">
<!-- Creator: CorelDRAW 2021 (64-Bit) -->
<svg xmlns="http://www.w3.org/2000/svg" xml:space="preserve" width="300px" height="301px" version="1.1" shape-rendering="geometricPrecision" text-rendering="geometricPrecision" image-rendering="optimizeQuality" fill-rule="evenodd" clip-rule="evenodd"
viewBox="0 0 300 301"
 xmlns:xlink="http://www.w3.org/1999/xlink"
 xmlns:xodm="http://www.corel.com/coreldraw/odm/2003">
 <g id="Capa_x0020_1">
  <metadata id="CorelCorpID_0Corel-Layer"/>
  <g id="_2243185030272">
   <path fill="#00A859" d="M49.663 223.847c4.542,-16.846 -12.062,-14.759 -18.003,-58.624 -14.826,-109.455 118.54,-183.337 203.966,-101.27 80.354,77.195 15.139,220.46 -100.551,204.785 -22.365,-3.03 -30.448,-8.717 -46.887,-16.808 -9.447,-4.649 -36.383,8.844 -48.444,9.278l9.919 -37.361zm6.443 -189.806l-15.171 14.23c-1.45,4.128 -5.007,7.043 -8.941,12.136 -23.618,30.579 -33.8,72.098 -27.867,111.873 6.65,44.576 20.767,35.796 12.874,63.439l-17.001 65.445c11.954,-1.115 33.054,-8.284 45.396,-11.629 28.737,-7.791 29.811,-11.527 44.253,-4.638 79.818,38.073 187.14,-6.533 207.412,-107.831 14.443,-72.172 -26.878,-128.64 -68.444,-154.386 -46.864,-29.028 -107.477,-29.423 -156.27,0.602 -4.657,2.867 -13.331,9.901 -16.241,10.759z"/>
   <g>
    <path fill="#FEFEFE" d="M81.988 207.653c0.738,6.253 4.464,10.952 8.051,13.417 5.752,3.953 9.691,3.866 17.661,3.866l85.85 0c3.622,0 6.595,0.135 9.989,-0.808 8.075,-2.242 13.953,-9.028 14.57,-17.556 0.109,-2.839 0.194,-12.046 -0.23,-14.496 -1.857,-10.701 -11.439,-18.043 -20.829,-23.23 -13.164,-7.273 -32.205,-11.214 -47.696,-11.227 -21.876,-0.019 -51.117,7.68 -63.263,24.885 -1.893,2.683 -3.66,6.461 -4.124,10.571 -0.243,2.151 -0.202,12.362 0.021,14.578z"/>
    <path fill="#FEFEFE" d="M118.147 111.46c1.392,15.331 14.66,28.047 31.066,28.047 16.522,0 29.648,-12.729 31.076,-28.18 0.393,-5.129 -0.213,-9.799 -1.896,-14.195 -8.05,-21.013 -35.805,-27.424 -52.05,-10.067 -6.099,6.517 -8.965,14.889 -8.196,24.395z"/>
   </g>
   <rect fill="#00A859" transform="matrix(0.394119 0.269717 -0.269718 0.394119 36.9098 61.4632)" width="574.667" height="54.431"/>
  </g>
 </g>
</svg>
